<?xml version="1.0" encoding="UTF-8" standalone="no"?>
<svg
   xmlns:dc="http://purl.org/dc/elements/1.1/"
   xmlns:cc="http://creativecommons.org/ns#"
   xmlns:rdf="http://www.w3.org/1999/02/22-rdf-syntax-ns#"
   xmlns:svg="http://www.w3.org/2000/svg"
   xmlns="http://www.w3.org/2000/svg"
   viewBox="0 0 426.66666 318.66666"
   height="318.66666"
   width="426.66666"
   xml:space="preserve"
   id="svg2"
   version="1.1"><metadata
     id="metadata8"><rdf:RDF><cc:Work
         rdf:about=""><dc:format>image/svg+xml</dc:format><dc:type
           rdf:resource="http://purl.org/dc/dcmitype/StillImage" /></cc:Work></rdf:RDF></metadata><defs
     id="defs6" /><g
     transform="matrix(1.3333333,0,0,-1.3333333,0,318.66667)"
     id="g10"><g
       transform="scale(0.1)"
       id="g12"><path
         id="path14"
         style="fill:#d1574a;fill-opacity:1;fill-rule:evenodd;stroke:none"
         d="m 1652.19,805 c -6.99,-3.012 -60.98,3.672 -161.99,20 -101.33,16.328 -208.83,60.309 -322.5,131.988 -101.65,76.992 -141.18,143.672 -118.48,200.002 22.66,56.33 134.14,48.83 334.49,-22.5 198.67,-70.35 307.81,-67.15 327.5,9.49 19.34,76.33 -10.66,165.86 -90,268.52 -56.01,62.66 -116.99,144.49 -183.01,245.51 -66.32,100.97 -91.99,214.14 -76.99,339.49 15.31,125.31 116.64,256.17 303.99,392.5 -6.33,-1.33 -30,-32.66 -70.98,-94.02 -41.02,-60.98 -62.03,-143.17 -63.01,-246.49 -1.01,-103.32 55.51,-218.83 169.49,-346.48 125,-129.34 218.99,-254.18 282,-374.53 63,-120.32 67.85,-216.84 14.49,-289.5 -52.97,-73 -191.49,-102.652 -415.47,-88.98 -93.36,5 -131.68,-4.34 -115,-28.012 16.99,-23.668 50.47,-48.508 100.47,-74.488 50.35,-26.328 78.67,-40.512 85,-42.5" /><path
         id="path16"
         style="fill:#f5941e;fill-opacity:1;fill-rule:evenodd;stroke:none"
         d="m 1557.19,1161.48 c 3.67,-0.97 13.67,7.86 30,26.53 16.68,18.32 16.17,52.3 -1.49,101.99 -17.34,49.65 -74.65,120.66 -171.99,213.01 -96.33,96.64 -145,196.13 -146.01,298.47 -0.98,102.35 15,189.03 48,260 32.66,71.33 51.68,108.52 57,111.53 -7.66,-3.01 -39.65,-47.85 -95.98,-134.53 -56.37,-86.64 -92.34,-197.97 -108.01,-333.99 -15.35,-136.01 34.34,-279.33 148.99,-430 74.33,-82.65 132.65,-123.67 175,-123.01 41.99,0.36 63.51,3.68 64.49,10" /><path
         id="path18"
         style="fill:#f3e811;fill-opacity:1;fill-rule:evenodd;stroke:none"
         d="m 1210.2,1230.51 c 5,-2.7 11.83,3.16 20.5,17.5 8.68,14.33 -11.01,51.83 -58.98,112.5 -53.01,74.65 -75.67,146.83 -68.01,216.48 7.34,70 13.67,107.5 18.99,112.5 -9.65,-7.65 -28.99,-58.01 -58.01,-151.01 -28.99,-92.66 -10.31,-181.33 56.01,-265.98 54.34,-38.67 84.18,-52.66 89.5,-41.99" /><path
         id="path20"
         style="fill:#7c235b;fill-opacity:1;fill-rule:nonzero;stroke:none"
         d="m 247.191,275.082 c -14.179,-8.363 -30.902,-12.5 -50.16,-12.5 -25,0 -47.5,8.668 -67.5,26.09 C 109.609,306.051 96.7617,327.66 90.9414,353.52 63.75,355.699 41.6016,365.859 24.5313,383.98 8.16016,401.051 0,421.211 0,444.449 c 0,24.692 10.3086,45.711 30.9414,63.129 20.6992,17.383 45.7774,26.094 75.1486,26.094 21.14,0 36.609,-1.832 46.41,-5.473 56.559,50.821 111.172,76.102 163.91,75.781 26.75,-0.429 49.059,-7.57 66.871,-21.402 17.809,-13.75 27.231,-30.937 28.278,-51.558 1.453,-22.192 -1.989,-42 -10.309,-59.379 -5.859,-12.422 -16.52,-27.301 -32.031,-44.692 -13.438,-14.918 -36.168,-30.621 -68.129,-47.179 -31.988,-16.489 -58.86,-26.18 -80.621,-29.071 5.082,-14.488 13.98,-21.719 26.722,-21.719 2.5,0 5.387,0.36 8.75,1.102 26.129,6.867 44.61,18.629 55.469,35.309 5.07,7.699 13.629,12.07 25.621,13.129 -0.429,0 7.739,0 24.528,0 11.562,0 17.89,0 19.062,0 7.188,-1.489 11.141,-4.93 11.879,-10.321 0.699,-8.039 0.621,-13.59 -0.309,-16.719 -0.863,-3.039 -3.601,-8.199 -8.281,-15.46 -14.93,-22.5 -25.789,-42.11 -32.66,-58.75 -15.309,-37 -25.309,-60.239 -30,-69.688 -14.488,-31.25 -27.031,-51.562 -37.66,-60.941 -35.93,-31.95 -80.391,-47.9691 -133.281,-47.9691 -37.809,0 -70.1488,9.5271 -97.0277,28.5981 -26.8008,19.062 -40.1602,42.031 -40.1602,68.902 0,18.129 1.957,32.269 5.9375,42.5 2.8906,7.578 8.9922,16.719 18.2812,27.348 9.2618,10.699 22.3907,16.089 39.379,16.089 13.4414,0 25.0432,-4.058 34.8402,-12.187 9.769,-8.121 14.691,-18.043 14.691,-29.692 0,-15.621 -6.871,-27.609 -20.629,-35.929 -14.4921,-6.18 -21.7108,-16.18 -21.7108,-30 0,-8.641 3.9414,-15.942 11.8711,-21.879 8.0077,-6.012 17.8087,-9.063 29.3787,-9.063 26.871,-0.39 51.442,11.723 73.75,36.411 22.379,24.679 38.469,56.441 48.281,95.312 z m -118.75,225.469 c -11.25,3.199 -22.152,4.84 -32.6597,4.84 -17.4219,0 -33.0508,-5.621 -46.8711,-16.871 -13.75,-11.25 -20.6289,-25.43 -20.6289,-42.5 0,-16.68 4.8789,-30.942 14.6875,-42.821 9.7617,-11.789 21.6015,-17.648 35.4726,-17.648 3.1992,0 7.3789,0.699 12.5,2.179 2.1797,40.711 14.6796,78.321 37.4996,112.821 z M 210.16,381.328 c 10.5,0.621 20.86,3.121 31.09,7.5 24.262,10.512 45.309,29.57 63.129,57.192 30.5,47.57 45.781,79.21 45.781,94.839 0,10.082 -4.609,17.692 -13.75,22.813 -2.5,1.449 -5.59,2.187 -9.219,2.187 -12.742,0 -29.613,-9.808 -50.632,-29.379 -15.938,-15.308 -26.25,-26.949 -30.938,-34.839 -2.609,-4.371 -5.543,-6.801 -8.742,-7.192 4.371,-4.289 11.242,-13.121 20.621,-26.558 5.078,-9.18 7.66,-15.161 7.66,-17.969 0,-6.992 -4.031,-10.473 -12.039,-10.473 -4.68,0 -10.699,3.641 -17.961,10.942 -5.43,5.39 -10.32,8.32 -14.691,8.75 -8.668,-22.93 -12.969,-42.731 -12.969,-59.371 0,-7.309 0.859,-13.442 2.66,-18.442 z M 377.809,257.109 c -1.868,0 -3.829,1.481 -5.778,4.532 -1.992,3.129 -2.972,6.129 -2.972,9.058 0,2.192 0.351,3.992 1.101,5.473 9.059,9.449 24.68,26.558 46.871,51.25 10.078,12.269 27.028,36.129 50.778,71.558 23.832,35.399 39.73,60.508 47.66,75.321 32.261,61.32 51.332,90.777 57.191,88.277 5.391,-2.187 11.75,-6.957 19.059,-14.219 7.261,-7.187 12.191,-14.3 14.691,-21.25 3.629,-9.058 5.469,-15.429 5.469,-19.058 0,-5.43 -2.188,-12.66 -6.57,-21.723 -32.297,-65 -66.559,-135.078 -102.809,-210.156 -4.059,-10.231 -6.09,-17.301 -6.09,-21.25 0,-5.863 3.469,-8.043 10.469,-6.563 5.391,1.129 14.84,8.481 28.281,22.032 13.43,13.629 22.5,20.468 27.18,20.468 8.012,0 12.039,-3.277 12.039,-9.839 0,-3.25 -0.938,-5.938 -2.82,-8.129 -10.86,-11.559 -21.719,-23.36 -32.649,-35.309 -21.801,-22.5 -37.93,-37.031 -48.441,-43.602 -22.809,-14.921 -42.617,-22.339 -59.379,-22.339 -17.11,0 -29.61,7.808 -37.5,23.441 -1.481,2.5 -2.18,5.938 -2.18,10.309 0,23.949 19.57,68.949 58.75,135 -38.441,-55.551 -62.582,-83.282 -72.351,-83.282 z" /><path
         id="path22"
         style="fill:#7c235b;fill-opacity:1;fill-rule:nonzero;stroke:none"
         d="m 803.91,293.672 c 5.699,-2.192 8.59,-5.121 8.59,-8.75 0,-4.063 -2.891,-9.332 -8.59,-15.781 -18.558,-24.692 -40,-37.969 -64.379,-39.84 -7.929,-0.75 -14.652,0.347 -20.152,3.281 C 687.5,190.469 651.91,169.449 612.66,169.449 c -18.441,0 -33.129,5.981 -44.07,17.973 -10.86,11.957 -16.25,28.129 -16.25,48.437 0,8.75 1.101,17.813 3.281,27.192 -1.48,-1.492 -3.281,-2.192 -5.461,-2.192 -7.308,0 -10.941,3.629 -10.941,10.942 0,3.629 1.48,7.07 4.371,10.308 17.82,22.5 37.031,44.61 57.66,66.411 31.949,34.449 60.309,57.378 85,68.75 13.75,6.441 27.191,9.679 40.309,9.679 24.691,0 41.171,-12.5 49.531,-37.5 1.762,-5.429 2.66,-11.789 2.66,-19.058 0,-24.371 -9.059,-54.532 -27.191,-90.469 4.382,-2.5 6.562,-7.582 6.562,-15.152 12.27,2.89 22.078,10.699 29.379,23.429 5.391,5.391 10.859,7.231 16.41,5.473 z M 649.691,224.449 c 2.579,-1.051 5.149,-1.558 7.649,-1.558 11.64,0 22.039,10.308 31.101,30.941 -4.691,8.316 -7.031,16.867 -7.031,25.617 0,5.082 0.86,9.852 2.649,14.223 4.691,11.949 16.453,16.289 35.32,12.969 14.141,27.191 21.242,47.5 21.242,60.937 0,10.192 -4.922,15.313 -14.68,15.313 -14.492,0 -34.062,-22.731 -58.75,-68.121 -18.871,-34.071 -28.281,-57.821 -28.281,-71.25 0,-9.5 3.59,-15.86 10.781,-19.071 z" /><path
         id="path24"
         style="fill:#7c235b;fill-opacity:1;fill-rule:nonzero;stroke:none"
         d="m 1038.44,247.891 c -5.12,10.82 -7.31,24.257 -6.56,40.308 1.01,23.52 10.62,50.199 28.74,80 20,32.699 39.77,49.071 59.38,49.071 9.06,0 16.29,-3.872 21.72,-11.571 5.51,-7.609 7.73,-16.09 6.72,-25.469 -3.36,-33.429 -20.43,-71.949 -51.25,-115.46 0.7,-2.93 4.53,-4.379 11.4,-4.379 4.38,0 12.19,7.578 23.44,22.808 5.39,7.27 11.17,10.942 17.35,10.942 7.69,0 11.56,-3.672 11.56,-10.942 0,-3.238 -3.28,-8.668 -9.85,-16.25 -10.93,-13.429 -19.29,-22.34 -25,-26.719 -14.18,-11.25 -29.64,-16.871 -46.4,-16.871 -7.19,0 -13.56,1.09 -19.07,3.282 -11.56,-15.231 -24.96,-28.442 -40.15,-39.692 -16.8,-12.73 -31.329,-19.058 -43.591,-19.058 -21.801,0 -35.399,13.199 -40.789,39.691 -31.988,-24.691 -57.77,-37.031 -77.34,-37.031 -14.922,0 -26.719,4.41 -35.469,13.281 -8.672,8.938 -12.972,20.148 -12.972,33.59 0,11.25 3.05,22.5 9.222,33.75 11.559,20.629 25.699,47.808 42.5,81.558 -40.312,-48.242 -63.051,-72.339 -68.121,-72.339 -7.621,0 -11.41,3.629 -11.41,10.941 0,6.438 4.379,14.059 13.121,22.809 24.578,28.629 55.551,63.129 92.969,103.437 14.14,12.692 29.07,19.063 44.691,19.063 13.129,0 22.188,-4.02 27.188,-12.032 2.89,-4.3 4.371,-8.988 4.371,-14.058 0,-4.813 -3.82,-15.711 -11.399,-32.66 -8.05,-18.243 -25.281,-51.481 -51.722,-99.692 -2.93,-5.109 -4.379,-10.578 -4.379,-16.398 0,-9.379 3.789,-14.071 11.41,-14.071 6.25,0 14.609,3.989 25.16,12.04 0,1.75 0.391,4.449 1.25,8.121 0.93,3.629 1.399,6.328 1.399,8.129 5.82,30.5 18.519,58.628 38.132,84.371 6.559,8.75 15.231,13.129 26.089,13.129 14.88,0 22.34,-8.211 22.34,-24.54 0,-12.73 -6.36,-29.058 -19.06,-49.058 -10.54,-16.25 -22.15,-30.391 -34.841,-42.34 0.39,-18.562 7.851,-27.812 22.34,-27.812 13.011,0 28.641,12.691 46.881,38.121 z" /><path
         id="path26"
         style="fill:#7c235b;fill-opacity:1;fill-rule:nonzero;stroke:none"
         d="m 1136.56,264.141 c -7.93,5.078 -9.72,11.089 -5.47,17.968 7.27,8.321 22.39,26.871 45.32,55.621 11.56,17.071 23.32,34.11 35.31,51.098 13.44,18.942 23.79,29.293 31.09,31.094 9.77,2.5 15.55,3.75 17.35,3.75 3.32,0 6.75,-2.152 10.31,-6.402 16.01,-18.989 24.06,-32.622 24.06,-40.942 0,-9.808 -7.46,-31.058 -22.34,-63.746 -13.87,-30.434 -20.78,-50 -20.78,-58.75 0,-3.992 1.64,-5.941 5,-5.941 3.94,0 13,7.418 27.18,22.339 17.39,18.442 29.38,27.661 35.94,27.661 7.58,0 11.41,-3.442 11.41,-10.309 0,-3.672 -1.99,-8.91 -5.94,-15.781 -9.49,-15.942 -30,-36.492 -61.56,-61.571 -34.06,-27.179 -59.3,-40.781 -75.63,-40.781 -10.93,0 -19.84,4.383 -26.72,13.133 -5.43,6.867 -8.12,13.59 -8.12,20.148 0,13.442 3.44,28.481 10.31,45.161 3.63,9.058 16.13,35.55 37.5,79.531 -14.49,-18.242 -31.01,-37.891 -49.53,-58.902 -3.24,-2.5 -8.13,-3.989 -14.69,-4.379 z m 223.28,283.75 c 6.57,-4.692 9.85,-13.051 9.85,-25 0,-18.243 -6.02,-34.18 -17.97,-47.813 -11.99,-13.558 -26.52,-20.308 -43.6,-20.308 -10.54,0 -19.45,2.57 -26.71,7.808 -7.31,5.313 -10.94,14.301 -10.94,27.031 0,15.621 5.82,31.012 17.5,46.25 10.82,14.141 24.61,21.25 41.41,21.25 11.56,0 21.71,-3.089 30.46,-9.218 z" /><path
         id="path28"
         style="fill:#7c235b;fill-opacity:1;fill-rule:nonzero;stroke:none"
         d="m 1300.39,257.109 c -4.37,0 -6.56,1.442 -6.56,4.371 0,2.899 1.79,7.27 5.47,13.129 18.82,23.2 42.22,53.161 70.15,89.84 26.88,41.332 45.04,60.942 54.53,58.75 6.57,-1.48 13.17,-5.699 19.85,-12.648 6.64,-6.879 10.7,-13.563 12.19,-20 3.32,-14.18 3.32,-26.879 0,-38.129 -1.8,-6.563 -8.44,-18.402 -20,-35.473 12.57,12.391 24.37,23.481 35.31,33.281 25.7,23.52 44.76,38.95 57.19,46.25 8,5.079 16.17,10.161 24.53,15.161 8.32,5.078 15.54,7.66 21.72,7.66 9.76,0 19.21,-6.18 28.28,-18.442 1.44,-2.187 2.18,-4.918 2.18,-8.129 0,-8.75 -8.55,-29.492 -25.62,-62.179 -23.99,-45.75 -35.94,-72.582 -35.94,-80.469 0,-3.672 1.45,-5.473 4.38,-5.473 9.45,0 23.98,8.512 43.59,25.621 0.39,0.321 4.41,5 12.03,14.071 5.08,6.25 9.26,9.371 12.5,9.371 5.08,0 7.66,-3.871 7.66,-11.563 0,-6.488 -4.49,-14.648 -13.44,-24.527 -8.87,-9.812 -24.18,-23.91 -45.94,-42.352 -24.68,-21.05 -41.52,-33.511 -50.47,-37.339 -8.86,-3.871 -18.2,-5.782 -27.96,-5.782 -21.06,0 -32.82,8.161 -35.32,24.532 -2.61,16.019 13.91,57.23 49.53,123.589 1.45,2.579 2.19,4.77 2.19,6.571 0,1.75 -1.33,2.648 -3.9,2.648 -6.18,0 -12.78,-3.551 -19.85,-10.617 -7.11,-6.992 -20.62,-22.113 -40.62,-45.312 -22.82,-26.571 -38.6,-46.059 -47.35,-58.438 -8.67,-12.312 -19.53,-23.094 -32.65,-32.352 -13.05,-9.179 -24.46,-13.75 -34.22,-13.75 -13.13,0 -19.69,6.641 -19.69,20 0,6.25 2.89,14.071 8.75,23.442 9.06,14.879 13.79,22.887 14.22,24.058 6.44,13.442 22.38,45.36 47.81,95.79 -42.42,-50.122 -67.26,-75.161 -74.53,-75.161 z" /><path
         id="path30"
         style="fill:#7c235b;fill-opacity:1;fill-rule:nonzero;stroke:none"
         d="m 1658.12,151.02 c 8.76,4.289 23.64,10.429 44.69,18.429 3.64,8.012 5.47,12.539 5.47,13.602 -18.12,-8.672 -35.39,-12.969 -51.72,-12.969 -21.79,0 -36.83,6.289 -45.15,18.898 -4.07,6.25 -6.1,15.508 -6.1,27.821 0,23.629 4.89,40.347 14.69,50.148 -6.48,-4.801 -12.46,-7.34 -17.97,-7.648 -5.43,3.629 -8.12,7.418 -8.12,11.398 0,2.192 0.89,4.383 2.65,6.571 8.01,10.191 21.64,26.32 40.94,48.429 26.88,29.379 43.52,46.961 50,52.821 29.06,26.128 53.59,39.21 73.59,39.21 41.02,0 61.57,-6.359 61.57,-19.058 14.76,37.379 27.5,56.098 38.12,56.098 6.45,0 13.83,-6.372 22.19,-19.071 3.63,-5.109 7.26,-10.39 10.94,-15.777 4.37,-7.301 5.97,-13.281 4.84,-17.973 -16.99,-35.929 -46.02,-97.648 -87.03,-185.148 12.26,8 21.72,15.308 28.28,21.871 25.08,25 38.67,38.359 40.78,40.16 9.88,9.449 17.19,14.219 21.88,14.219 6.56,0 9.84,-3.672 9.84,-10.942 0,-6.168 -4.02,-13.75 -12.03,-22.808 -27.19,-30.121 -62.77,-57 -106.72,-80.629 -45.74,-98.7501 -89.49,-153.1603 -131.25,-163.2814 -15.23,-3.6289 -29.53,-5.46872 -42.97,-5.46872 -21.8,0 -38.63,5.00002 -50.62,15.00002 -11.96,10 -17.07,24.457 -15.32,43.2773 1.88,18.8711 14.46,35.3908 37.66,49.5308 22.07,10.942 44.37,22.04 66.87,33.29 z m 77.97,173.121 c -22.61,-36.371 -33.9,-58.711 -33.9,-67.032 0,-3.238 2.54,-5.937 7.65,-8.129 3.32,-1.171 6.45,-1.71 9.38,-1.71 15.19,0 32.07,16.71 50.62,50.152 18.13,32.269 27.19,53.519 27.19,63.75 0,3.949 -1.83,6.637 -5.47,8.129 -1.79,1.008 -3.98,1.558 -6.56,1.558 -13.44,0 -29.77,-15.589 -48.91,-46.718 z M 1655.16,70.3906 c 10.31,17.8086 20.93,38.5194 31.87,62.0314 -32.73,-13.442 -54.14,-29.922 -64.22,-49.5314 -5.11,-10.1914 -7.65,-18.75 -7.65,-25.6211 0,-9.0703 3.28,-13.5976 9.84,-13.5976 9.77,0 19.84,8.9101 30.16,26.7187 z" /><path
         id="path32"
         style="fill:#7c235b;fill-opacity:1;fill-rule:nonzero;stroke:none"
         d="m 2263.52,229.922 c 23.51,-5.863 46.4,-8.75 68.59,-8.75 12.69,0 23.94,1.098 33.75,3.277 28.2,6.141 52.89,23.75 74.06,52.821 5.39,7.261 10.82,10.929 16.25,10.929 7.58,0 11.41,-4.527 11.41,-13.59 0,-4.058 -1.49,-8.089 -4.38,-12.027 -23.24,-33.051 -39.92,-54.812 -50,-65.312 -25.86,-27.27 -50.9,-40.938 -75.15,-40.938 -31.57,0 -69.85,11.828 -114.85,35.469 -34.18,-25.391 -69.02,-38.129 -104.53,-38.129 -32.73,0 -58.51,6.879 -77.34,20.629 -16.37,11.949 -24.53,26.32 -24.53,43.121 0,16.25 5.62,29.687 16.87,40.308 12.7,11.961 30.82,17.969 54.38,17.969 22.89,0 53.2,-6.211 90.93,-18.59 20.4,25 38.75,55.821 55,92.5 -60.62,15.621 -90.93,49.922 -90.93,102.969 0,39.57 16.33,72.973 49.06,100.152 27.58,23.211 55.35,34.848 83.28,34.848 22.5,0 40.08,-3.437 52.81,-10.308 5.08,-2.93 7.66,-6.372 7.66,-10.321 0,-8.75 -5.12,-13.121 -15.31,-13.121 -2.5,0 -4.85,0.551 -7.03,1.723 -10.12,2.808 -22.27,4.219 -36.41,4.219 -23.67,0 -46.17,-8.719 -67.5,-26.098 -23.67,-19.613 -36.37,-43.203 -38.13,-70.781 -1.48,-25.43 3.21,-44.84 14.07,-58.282 11.95,-14.488 32.26,-23.91 60.93,-28.281 3.64,8.012 8.01,17.262 13.13,27.813 22.19,44.257 48.32,82.187 78.44,113.75 41.33,43.519 83.04,65.308 125.15,65.308 25.39,0 41.57,-8.359 48.44,-25 4.77,-11.25 5.35,-24.488 1.72,-39.679 -8.75,-36.68 -31.99,-71.532 -69.69,-104.54 -34.18,-29.492 -70.86,-50.39 -110,-62.652 -18.12,-48.359 -41.52,-88.828 -70.15,-121.406 z m 195.31,329.379 c -7.62,0 -13.91,-1.492 -18.91,-4.379 -12.73,-6.871 -23.67,-16.684 -32.81,-29.371 -18.87,-27.192 -39.69,-74.379 -62.5,-141.571 25,10.508 53.28,31.18 84.84,62.04 35.2,34.878 52.82,63.941 52.82,87.179 0,6.879 -2.11,12.891 -6.25,18.129 -4.18,5.313 -9.93,7.973 -17.19,7.973 z M 2153.98,228.832 c -28.36,14.137 -51.95,21.25 -70.78,21.25 -21.05,0 -31.56,-8.402 -31.56,-25.16 0,-9.371 3.91,-17.113 11.72,-23.121 7.81,-5.942 16.6,-8.91 26.41,-8.91 18.82,0 40.23,11.949 64.21,35.941 z" /><path
         id="path34"
         style="fill:#7c235b;fill-opacity:1;fill-rule:nonzero;stroke:none"
         d="m 2707.03,293.672 c 5.7,-2.192 8.59,-5.121 8.59,-8.75 0,-4.063 -2.89,-9.332 -8.59,-15.781 -18.55,-24.692 -40,-37.969 -64.37,-39.84 -7.93,-0.75 -14.65,0.347 -20.16,3.281 -31.88,-42.113 -67.46,-63.133 -106.72,-63.133 -18.44,0 -33.12,5.981 -44.06,17.973 -10.86,11.957 -16.25,28.129 -16.25,48.437 0,8.75 1.09,17.813 3.28,27.192 -1.48,-1.492 -3.28,-2.192 -5.47,-2.192 -7.3,0 -10.94,3.629 -10.94,10.942 0,3.629 1.49,7.07 4.38,10.308 17.81,22.5 37.03,44.61 57.66,66.411 31.95,34.449 60.31,57.378 85,68.75 13.74,6.441 27.18,9.679 40.31,9.679 24.69,0 41.17,-12.5 49.53,-37.5 1.76,-5.429 2.66,-11.789 2.66,-19.058 0,-24.371 -9.07,-54.532 -27.19,-90.469 4.37,-2.5 6.56,-7.582 6.56,-15.152 12.27,2.89 22.07,10.699 29.37,23.429 5.4,5.391 10.86,7.231 16.41,5.473 z m -154.22,-69.223 c 2.58,-1.051 5.16,-1.558 7.66,-1.558 11.64,0 22.03,10.308 31.09,30.941 -4.68,8.316 -7.03,16.867 -7.03,25.617 0,5.082 0.86,9.852 2.66,14.223 4.69,11.949 16.44,16.289 35.31,12.969 14.14,27.191 21.25,47.5 21.25,60.937 0,10.192 -4.92,15.313 -14.69,15.313 -14.49,0 -34.06,-22.731 -58.75,-68.121 -18.86,-34.071 -28.28,-57.821 -28.28,-71.25 0,-9.5 3.59,-15.86 10.78,-19.071 z" /><path
         id="path36"
         style="fill:#7c235b;fill-opacity:1;fill-rule:nonzero;stroke:none"
         d="m 2861.41,245.699 c -6.49,10.512 -9.18,24.692 -8.13,42.5 1.45,23.52 11.25,50.199 29.38,80 20,32.699 39.61,49.071 58.9,49.071 8.64,0 15.55,-3.872 20.78,-11.571 5.32,-7.609 7.97,-16.32 7.97,-26.09 -3.24,-33.05 -20.47,-71.328 -51.72,-114.839 0.71,-2.93 4.53,-4.379 11.41,-4.379 4.38,0 12.19,7.418 23.44,22.339 5.82,7.579 11.64,11.411 17.5,11.411 7.58,0 11.4,-3.672 11.4,-10.942 0,-3.238 -3.28,-8.668 -9.84,-16.25 -11.99,-14.179 -20.31,-23.078 -25,-26.719 -13.75,-11.25 -29.02,-16.871 -45.78,-16.871 -6.17,0 -12.31,1.09 -18.44,3.282 -45.43,-37.422 -84.45,-56.09 -117.03,-56.09 -15.31,0 -27.77,5.039 -37.34,15.148 -9.61,10.199 -14.38,22.582 -14.38,37.192 0,10.82 2.7,21.328 8.13,31.558 11.25,20.633 25.39,46.723 42.5,78.281 -40.32,-48.242 -63.05,-72.339 -68.13,-72.339 -7.62,0 -11.41,3.629 -11.41,10.941 0,6.129 4.38,13.75 13.13,22.809 24.57,28.629 55.55,63.129 92.97,103.437 14.14,12.692 29.06,19.063 44.69,19.063 13.12,0 22.18,-4.02 27.18,-12.032 2.89,-4.3 4.38,-8.988 4.38,-14.058 0,-5.551 -3.83,-16.41 -11.41,-32.66 -13.04,-28.36 -32.61,-66.84 -58.75,-115.469 -1.87,-3.672 -2.81,-7.461 -2.81,-11.402 0,-10.938 5.08,-16.411 15.31,-16.411 13.01,0 30.04,10.352 51.1,31.09 z" /><path
         id="path38"
         style="fill:#7c235b;fill-opacity:1;fill-rule:nonzero;stroke:none"
         d="m 3051.88,244.609 c -1.8,-20 5.46,-30.16 21.71,-30.468 10.2,-0.43 23.13,3.91 38.75,12.968 14.14,8.75 26.49,18.59 37.04,29.532 13.74,14.769 23.04,23.75 27.96,26.879 4.89,3.121 7.89,4.679 9.07,4.679 2.89,0 6.48,-1.48 10.78,-4.367 1.87,-1.492 2.81,-3.281 2.81,-5.473 0,-8.05 -12.73,-23.828 -38.12,-47.339 -46.88,-43.25 -89.69,-64.848 -128.44,-64.848 -11.99,0 -22.58,2.578 -31.72,7.66 -12.31,6.867 -21.88,17.539 -28.75,32.027 -5.86,11.95 -8.05,22.192 -6.56,30.621 1.44,9.071 2.54,15.04 3.28,17.969 2.19,5.711 6.17,10.981 12.03,15.781 -9.49,-9.492 -16.21,-14.21 -20.16,-14.21 -3.36,0 -6.36,1.601 -9.06,4.839 -2.73,3.321 -4.06,6.602 -4.06,9.84 0,4.383 3.63,9.102 10.94,14.223 3.94,2.887 15.97,16.328 36.09,40.308 20.19,23.95 40.82,43.68 61.87,59.219 29.77,22.5 56.29,33.75 79.54,33.75 15.19,0 27.34,-4.527 36.4,-13.59 10.2,-10.121 15.31,-21.019 15.31,-32.66 0,-17.418 -10.89,-37.73 -32.65,-60.929 -30.24,-32 -64.92,-54.141 -104.06,-66.411 z m 37.03,55 c 5.82,0 18.16,9.922 37.03,29.84 11.25,11.961 16.87,24.531 16.87,37.66 0,5.821 -2.19,8.75 -6.56,8.75 -6.87,0 -19.22,-11.839 -37.03,-35.468 -12.31,-14.922 -18.44,-26.172 -18.44,-33.75 0,-4.692 2.7,-7.032 8.13,-7.032 z" /></g></g></svg>